<svg xmlns="http://www.w3.org/2000/svg" viewBox="0 0 168 40" fill="none" role="img" aria-label="Sanitas">
<path d="M34.8984 26.9002L37.3438 24.3561C38.119 25.1868 39.0576 25.8487 40.1008 26.3005C41.1439 26.7523 42.2692 26.9842 43.4063 26.9818C45.6064 26.9818 47.1186 25.9411 47.3025 24.4446V24.3834C47.4797 22.9413 46.7712 22.159 43.1202 21.2952C38.9378 20.2544 36.6627 18.9824 37.1259 15.2616V15.2072C37.5482 11.7381 40.7361 9.34375 44.755 9.34375C47.3446 9.25325 49.8688 10.1674 51.7983 11.8946L49.5572 14.5746C48.1077 13.2972 46.2518 12.5742 44.319 12.534C42.2755 12.534 40.9132 13.6019 40.7293 14.9283V14.9827C40.5385 16.5473 41.4104 17.2343 45.1705 18.1594C49.3188 19.2001 51.301 20.7306 50.9128 24.0773V24.1385C50.4359 27.8865 47.1595 30.138 42.9362 30.138C41.4471 30.1672 39.9674 29.8954 38.5861 29.339C37.2049 28.7826 35.9505 27.953 34.8984 26.9002ZM52.9835 22.2543V22.1999C53.6034 17.1458 57.3771 14.2889 61.0418 14.2889C62.0247 14.2567 62.9978 14.4931 63.8561 14.9726C64.7144 15.4521 65.4253 16.1565 65.9121 17.0098L66.205 14.6426H69.6994L67.8262 29.8795H64.3318L64.6383 27.3423C63.9953 28.2127 63.1598 28.9233 62.197 29.4188C61.2342 29.9143 60.1698 30.1814 59.0868 30.1992C55.5038 30.1652 52.3568 27.3083 52.9767 22.2543H52.9835ZM65.3263 22.2543V22.1999C65.6873 19.2545 63.8482 17.3159 61.505 17.3159C59.1617 17.3159 56.8866 19.1661 56.512 22.1999V22.2543C56.151 25.1996 57.9356 27.1314 60.3061 27.1314C62.6766 27.1314 64.9585 25.1724 65.3195 22.2543H65.3263ZM73.0849 14.6086H76.5861L76.3 16.9418C76.8817 16.1318 77.6459 15.4697 78.5309 15.0089C79.416 14.5481 80.3971 14.3015 81.3951 14.2889C84.801 14.2889 86.5448 16.5949 86.1088 20.1184L84.9168 29.8455H81.4156L82.485 21.1863C82.7711 18.8192 81.7562 17.4655 79.6718 17.4655C77.5874 17.4655 76.0616 18.8736 75.7687 21.2476L74.7128 29.8455H71.2048L73.0849 14.6086ZM90.1958 14.6086H93.6971L91.8239 29.8455H88.3226L90.1958 14.6086ZM90.7544 8.94922H94.5145L94.1058 12.2687H90.3457L90.7544 8.94922ZM96.6261 25.635L97.6138 17.6084H95.6588L96.0335 14.6086H97.968L98.4789 10.4185H101.98L101.462 14.6086H105.549L105.182 17.6084H101.095L100.175 25.0908C100.012 26.4512 100.638 26.9954 101.823 26.9954C102.596 26.9943 103.357 26.8175 104.051 26.4784L103.703 29.3353C102.705 29.8669 101.586 30.1339 100.454 30.1108C97.8795 30.104 96.2038 28.9816 96.6125 25.635H96.6261ZM105.972 22.2339V22.1795C106.592 17.1254 110.386 14.2685 114.023 14.2685C115.006 14.2403 115.979 14.4783 116.838 14.9574C117.696 15.4364 118.409 16.1386 118.9 16.9894L119.186 14.6222H122.688L120.814 29.8591H117.32L117.633 27.3219C116.99 28.1923 116.155 28.9029 115.192 29.3984C114.229 29.8939 113.165 30.161 112.082 30.1788C108.465 30.1652 105.338 27.3083 105.958 22.2543L105.972 22.2339ZM118.315 22.2339V22.1795C118.676 19.2341 116.83 17.2955 114.493 17.2955C112.157 17.2955 109.868 19.1457 109.5 22.1795V22.2339C109.132 25.1792 110.917 27.111 113.288 27.111C115.658 27.111 117.94 25.1724 118.301 22.2543L118.315 22.2339ZM123.205 27.8321L125.051 25.4649C126.378 26.6187 128.061 27.2816 129.82 27.3423C131.318 27.3423 132.265 26.7097 132.388 25.6962V25.6418C132.537 24.4582 130.964 24.0501 129.241 23.5059C127.068 22.8665 124.663 21.9482 125.024 19.03V18.9688C125.378 16.0847 127.994 14.3229 131.025 14.3229C132.958 14.3418 134.839 14.9467 136.42 16.0575L134.731 18.5403C133.518 17.6824 132.087 17.1826 130.603 17.0982C129.241 17.0982 128.382 17.7308 128.28 18.5947V18.6559C128.137 19.7783 129.731 20.2408 131.454 20.819C133.593 21.4992 135.984 22.5196 135.644 25.2676V25.3221C135.248 28.5259 132.571 30.1176 129.39 30.1176C127.121 30.1205 124.924 29.3177 123.192 27.8525L123.205 27.8321Z" fill="#0079C8"/>
<g clip-path="url(#clip0_9174_74064)">
<rect width="27.2381" height="27.2" transform="translate(0 6.39844)" fill="white"/>
<path d="M27.2381 25.9221H24.8743C24.4455 25.9029 24.0288 25.7739 23.6642 25.5477C23.2996 25.3214 22.9994 25.0053 22.7924 24.6299L20.6079 29.1653C20.5374 29.3034 20.4301 29.4194 20.2979 29.5007C20.1657 29.5819 20.0137 29.6252 19.8584 29.6259C19.6528 29.6185 19.4572 29.5353 19.3093 29.3924C19.1614 29.2494 19.0718 29.0569 19.0577 28.8519L17.6996 13.4991L14.7849 26.1204C14.7505 26.2607 14.6747 26.3875 14.5674 26.4845C14.46 26.5814 14.3261 26.644 14.1828 26.6641C14.0379 26.6814 13.8912 26.6554 13.7612 26.5893C13.6312 26.5233 13.5238 26.4202 13.4525 26.2931L12.0752 23.7343C11.5435 24.4344 10.8525 24.998 10.0594 25.3784C9.26623 25.7588 8.39376 25.9452 7.51418 25.9221H0V33.5984H27.2381V25.9221Z" fill="#0079C8"/>
<path d="M0 24.4827V6.39844H27.2381V24.4763H24.8743C24.317 24.4763 23.8686 23.6191 23.6315 23.1522C23.5463 22.9539 23.4271 22.7721 23.2792 22.6148C23.1988 22.5376 23.1016 22.4802 22.9951 22.447C22.8886 22.4139 22.7758 22.4061 22.6658 22.4241C22.5557 22.4421 22.4514 22.4855 22.361 22.5508C22.2707 22.6161 22.1969 22.7015 22.1454 22.8003L20.294 26.7473L18.8143 10.4221C18.7957 10.2078 18.7011 10.007 18.5473 9.85624C18.3936 9.70544 18.191 9.61449 17.976 9.59982C17.761 9.58515 17.5478 9.64771 17.375 9.77622C17.2021 9.90473 17.081 10.0907 17.0334 10.3006L13.8304 23.971L12.7542 21.9879C12.7054 21.9013 12.6394 21.8255 12.5603 21.7653C12.4811 21.7051 12.3904 21.6617 12.2939 21.6377C12.1973 21.6138 12.0968 21.6098 11.9986 21.626C11.9004 21.6422 11.8066 21.6783 11.7229 21.732C11.5727 21.8506 11.4485 21.9987 11.3577 22.167C10.9896 22.8664 10.4368 23.4519 9.75934 23.8601C9.08184 24.2683 8.30543 24.4836 7.51418 24.4827H0Z" fill="#0079C8"/>
</g>
<defs>
<clipPath id="clip0_9174_74064">
<rect width="27.2381" height="27.2" fill="white"/>
</clipPath>
</defs>
</svg>
